<mxfile host="app.diagrams.net" modified="2023-10-31T13:03:45.570Z" agent="Mozilla/5.0 (Windows NT 10.0; Win64; x64) AppleWebKit/537.36 (KHTML, like Gecko) Chrome/118.0.0.0 Safari/537.36" version="22.0.8" etag="zPZt-9E7FBYkjDNGBEe1" type="github">
  <diagram name="Trang-1" id="WUnYwGBw5czQL8F6A9PX">
    <mxGraphModel>
      <root>
        <mxCell id="0" />
        <mxCell id="1" parent="0" />
      </root>
    </mxGraphModel>
  </diagram>
</mxfile>
